<?xml version="1.0" standalone="no"?>
<!DOCTYPE svg PUBLIC "-//W3C//DTD SVG 20010904//EN"
 "http://www.w3.org/TR/2001/REC-SVG-20010904/DTD/svg10.dtd">
<svg version="1.0" xmlns="http://www.w3.org/2000/svg"
 width="449.000000pt" height="513.000000pt" viewBox="0 0 449.000000 513.000000"
 preserveAspectRatio="xMidYMid meet">

<g transform="translate(0.000000,513.000000) scale(0.100000,-0.100000)"
fill="#000000" stroke="none">
<path d="M3745 4780 c-16 -4 -57 -15 -90 -25 -101 -29 -178 -45 -223 -45 -24
0 -51 -4 -60 -9 -10 -5 -47 -12 -82 -16 -246 -24 -270 -29 -270 -62 0 -7 8
-16 18 -20 9 -3 24 -12 32 -19 8 -7 44 -22 79 -34 60 -20 78 -21 285 -16 122
3 244 8 272 11 l51 7 6 -77 c9 -98 -2 -336 -16 -353 -28 -35 -81 -49 -232 -57
-120 -7 -287 -29 -375 -49 -97 -23 -132 -23 -162 0 -33 24 -38 49 -38 188 0
124 -18 239 -44 279 -25 38 -98 71 -140 63 -18 -4 -83 -31 -144 -61 -60 -30
-121 -55 -134 -55 -12 0 -38 -9 -56 -20 -20 -12 -59 -22 -105 -26 -39 -3 -90
-12 -112 -19 -97 -30 -333 -26 -372 7 -15 12 -83 2 -83 -12 0 -5 12 -21 27
-35 26 -24 47 -35 126 -69 33 -15 174 -41 262 -50 58 -6 234 7 351 25 66 10
91 10 127 0 50 -14 57 -26 57 -101 0 -106 -41 -131 -228 -138 -85 -3 -147 -10
-163 -18 -27 -14 -80 -29 -154 -44 -113 -23 -251 -97 -286 -153 -27 -45 -25
-92 6 -122 21 -22 33 -25 94 -25 84 0 104 7 156 55 43 39 145 92 198 102 40 7
99 37 116 57 27 32 69 13 86 -39 10 -28 14 -30 62 -30 29 -1 56 -4 60 -9 4 -4
8 -46 8 -93 l0 -85 -49 -44 c-28 -24 -73 -54 -100 -68 -28 -13 -62 -36 -76
-51 -14 -15 -52 -39 -85 -55 -33 -15 -104 -57 -158 -94 -55 -36 -105 -66 -113
-66 -48 0 -194 -108 -194 -143 0 -33 29 -47 100 -47 63 0 76 4 188 60 69 34
134 60 152 60 45 0 88 -21 150 -74 30 -27 65 -52 77 -56 31 -12 56 -65 48
-100 -6 -28 -36 -70 -49 -70 -4 0 -19 -11 -34 -25 -15 -14 -52 -42 -82 -63
-30 -20 -86 -67 -125 -105 -38 -38 -90 -83 -115 -100 -25 -17 -67 -49 -95 -72
-77 -63 -104 -77 -175 -91 -103 -19 -208 -54 -214 -70 -4 -10 13 -34 44 -66
l50 -51 0 -104 c0 -81 -4 -112 -19 -141 -11 -23 -20 -69 -24 -123 -4 -62 -12
-96 -26 -120 -12 -19 -21 -51 -21 -73 0 -21 -9 -55 -19 -75 -10 -20 -25 -63
-32 -96 -7 -33 -30 -95 -51 -137 -31 -63 -43 -78 -61 -78 -61 1 -67 27 -67
275 0 138 -4 224 -11 237 -6 12 -13 104 -16 222 -2 110 -6 210 -8 222 -3 12
-23 41 -45 65 -22 24 -40 49 -40 56 0 6 -16 32 -35 57 -48 64 -46 86 14 130
27 20 53 36 58 36 6 0 41 20 79 45 37 25 72 45 76 45 10 0 62 35 96 64 51 45
7 91 -80 83 -29 -3 -65 -8 -80 -12 -19 -5 -36 -2 -54 10 -23 15 -26 22 -22 59
3 25 21 64 45 101 51 78 73 126 73 162 0 19 10 39 29 57 16 16 40 51 53 80 21
48 23 66 26 281 3 227 3 230 -20 264 -27 41 -79 74 -101 65 -17 -6 -35 -79
-46 -194 -4 -41 -15 -89 -24 -107 -9 -18 -17 -46 -17 -63 0 -18 -13 -62 -30
-100 -16 -38 -30 -77 -30 -87 0 -10 -9 -29 -20 -43 -11 -14 -20 -35 -20 -47 0
-13 -4 -23 -9 -23 -5 0 -12 -13 -16 -29 -8 -39 -63 -111 -84 -111 -10 0 -26 9
-36 20 -16 18 -19 46 -23 248 -4 202 -6 230 -23 253 -17 25 -19 47 -19 264 0
222 -1 238 -20 262 -11 14 -20 31 -20 38 0 6 -8 19 -19 29 -12 11 -20 36 -24
73 -4 41 -12 63 -29 79 -30 29 -60 37 -81 21 -22 -16 -24 -131 -8 -508 11
-265 8 -328 -21 -439 -6 -25 -13 -124 -15 -220 -2 -96 -8 -179 -13 -184 -13
-13 -13 -116 0 -116 16 0 13 -317 -2 -336 -43 -52 -117 -121 -143 -133 -16 -7
-38 -17 -47 -22 -27 -14 -78 -11 -84 5 -3 8 2 26 11 40 14 21 20 60 16 102 0
7 -19 33 -41 60 -28 34 -41 61 -46 93 -9 67 -33 160 -55 208 -13 28 -19 66
-19 110 0 53 -5 78 -25 115 -14 26 -25 56 -25 68 0 11 -7 32 -16 45 -11 16
-19 63 -24 142 -16 214 -32 266 -78 261 -19 -2 -32 -13 -45 -38 -17 -31 -18
-52 -12 -205 3 -93 11 -190 17 -215 5 -25 13 -142 17 -260 l6 -216 32 -34 c37
-39 67 -98 77 -150 9 -48 48 -130 63 -130 6 0 18 -8 25 -19 7 -10 23 -21 36
-25 26 -9 26 -12 3 -50 -10 -18 -42 -42 -78 -61 -34 -17 -68 -36 -75 -42 -7
-5 -29 -16 -48 -24 -19 -7 -61 -30 -92 -51 -31 -21 -64 -38 -73 -38 -32 0 -65
-50 -65 -97 0 -38 4 -46 33 -63 27 -18 45 -20 127 -17 113 4 191 25 255 68 76
51 166 91 191 85 29 -8 40 -69 24 -141 -6 -27 -15 -78 -20 -112 -5 -34 -19
-77 -30 -95 -11 -18 -20 -48 -20 -66 0 -19 -8 -46 -19 -60 -14 -21 -19 -53
-24 -138 -4 -81 -11 -123 -26 -155 -15 -34 -21 -73 -25 -169 -3 -69 -8 -170
-12 -224 -9 -140 2 -171 69 -201 45 -19 54 -21 72 -9 31 20 62 82 69 138 3 27
15 63 25 80 37 61 45 109 52 331 9 250 17 346 30 359 5 6 9 46 9 90 0 65 4 88
21 116 15 24 24 59 28 116 4 47 12 89 21 99 7 9 17 43 21 74 10 88 58 179 130
245 38 35 69 56 84 56 28 0 68 -50 59 -74 -3 -9 -1 -16 5 -16 14 0 13 -748 -1
-756 -4 -3 -8 -148 -8 -322 1 -315 1 -317 25 -367 22 -45 118 -155 135 -155 4
0 27 -16 51 -35 36 -28 53 -35 90 -35 62 0 106 44 115 115 8 71 22 104 66 154
34 40 38 49 38 100 0 38 6 65 17 81 10 14 21 50 24 80 19 150 29 211 60 348 5
23 9 60 9 82 0 22 11 65 25 96 24 53 25 67 26 243 1 102 4 197 8 211 4 14 18
30 31 37 14 7 57 27 95 46 39 19 93 46 121 61 52 26 116 34 142 17 30 -19 43
-205 21 -301 -6 -25 -14 -148 -17 -275 -6 -213 -9 -233 -29 -267 -22 -37 -22
-44 -25 -490 l-3 -453 24 -45 c39 -74 41 -79 41 -96 0 -29 56 -74 93 -74 46 0
67 25 67 81 0 28 7 53 20 69 17 22 20 41 20 154 0 146 11 193 52 233 l29 28
202 3 c180 3 203 6 225 23 14 10 28 19 32 19 4 0 44 20 88 45 47 26 93 45 111
45 37 0 71 -31 71 -65 0 -13 9 -39 20 -57 15 -26 20 -51 20 -111 0 -66 4 -83
25 -115 33 -50 148 -152 210 -186 28 -15 54 -32 59 -37 19 -17 119 -10 146 11
14 11 31 20 38 20 42 1 187 145 231 230 13 25 41 64 62 87 21 23 45 57 54 75
8 18 26 51 40 73 14 22 25 48 25 57 0 10 9 32 20 50 11 18 20 44 20 58 0 14 9
36 20 50 11 14 20 36 20 50 0 43 79 291 114 357 20 40 22 171 3 197 -24 33
-51 16 -61 -39 -4 -28 -16 -70 -26 -95 -10 -25 -20 -58 -23 -75 -4 -30 -20
-73 -56 -150 -10 -22 -33 -70 -50 -107 -17 -37 -36 -70 -41 -73 -6 -3 -10 -17
-10 -30 0 -15 -7 -26 -20 -30 -11 -3 -20 -11 -20 -17 0 -26 -169 -228 -191
-228 -5 0 -9 -4 -9 -9 0 -8 -22 -31 -95 -100 -42 -39 -143 -101 -166 -101 -32
0 -65 24 -84 60 -12 23 -15 72 -15 241 0 211 0 212 25 245 14 18 58 54 98 80
39 25 90 63 112 84 22 21 61 49 87 63 66 37 209 187 224 237 10 34 9 41 -7 56
-20 18 -33 13 -68 -29 -26 -31 -124 -97 -144 -97 -7 0 -28 -11 -47 -25 -19
-14 -42 -25 -52 -25 -10 0 -26 -4 -36 -9 -9 -5 -32 -15 -49 -21 -18 -7 -33
-16 -33 -21 0 -5 -18 -9 -40 -9 -36 0 -41 3 -55 36 -8 20 -15 65 -15 100 0 51
4 68 23 88 33 37 93 66 136 66 22 0 59 10 83 21 23 12 58 29 76 38 18 9 45 26
60 38 22 18 25 24 14 35 -10 10 -48 12 -161 10 -155 -3 -211 8 -225 43 -3 9
-6 76 -6 149 l0 133 35 36 c20 21 43 37 51 37 9 0 28 8 42 18 37 26 95 51 131
58 40 8 131 93 131 121 0 11 -8 31 -19 44 -16 19 -27 22 -84 22 -45 -1 -74 -7
-93 -20 -16 -10 -58 -21 -94 -25 -36 -4 -96 -11 -135 -16 -67 -7 -137 -37
-189 -81 -15 -14 -64 -17 -317 -21 -320 -5 -334 -8 -310 -52 7 -13 32 -38 55
-55 36 -28 52 -33 97 -33 30 0 77 -7 104 -15 38 -12 98 -15 255 -15 203 1 205
1 223 -22 24 -28 19 -99 -14 -234 -35 -144 -81 -170 -317 -181 -78 -3 -112 -9
-138 -24 -19 -10 -53 -19 -75 -19 -47 0 -79 -14 -79 -35 0 -8 4 -15 9 -15 4 0
26 -12 47 -27 39 -27 41 -27 246 -33 114 -3 208 -7 210 -10 32 -41 38 -65 38
-142 -1 -53 -6 -92 -15 -108 -8 -14 -15 -34 -15 -45 -1 -39 -112 -144 -154
-145 -6 0 -22 -10 -36 -21 -57 -45 -132 -89 -154 -89 -13 0 -53 -13 -88 -29
-36 -16 -93 -36 -129 -44 -35 -9 -85 -24 -111 -34 -35 -13 -53 -15 -75 -8 -50
18 -53 36 -53 347 0 217 -3 297 -14 325 -33 92 -36 137 -36 489 0 250 3 362
12 377 6 12 50 60 98 107 51 50 102 112 125 152 58 101 117 121 207 73 26 -14
53 -25 61 -25 8 0 35 -11 61 -25 26 -14 59 -25 74 -25 15 0 47 -9 71 -20 39
-18 65 -20 275 -20 227 0 232 1 281 25 27 14 62 38 77 52 24 23 28 35 28 82 1
31 7 92 15 136 8 44 15 113 15 153 0 54 6 84 23 120 l22 47 0 637 c0 629 0
637 -21 660 -11 13 -28 35 -37 50 -31 50 -91 73 -152 58z m-25 -937 c0 -59
-29 -117 -75 -150 -14 -10 -45 -32 -69 -50 -23 -17 -62 -37 -87 -43 -24 -6
-84 -31 -133 -56 -49 -24 -107 -47 -128 -50 -21 -4 -55 -20 -75 -35 -31 -26
-44 -29 -104 -29 -103 0 -109 9 -109 159 0 103 3 125 20 154 22 37 43 47 103
47 21 0 54 7 74 15 20 9 61 22 92 29 31 8 74 21 96 30 22 8 57 15 78 16 21 0
48 5 60 12 29 16 183 26 225 14 31 -9 32 -11 32 -63z m-92 -350 c9 -8 15 -51
19 -120 4 -95 3 -114 -16 -156 -17 -40 -24 -47 -41 -43 -11 3 -28 8 -38 11
-40 11 -102 146 -102 221 0 8 21 35 48 59 39 37 53 45 82 43 19 -1 41 -8 48
-15z m-1001 -127 c26 -23 28 -29 31 -118 4 -108 -6 -167 -31 -182 -15 -9 -22
-6 -40 16 -13 16 -37 29 -59 33 -24 5 -38 13 -38 22 0 8 -8 17 -17 20 -10 2
-27 19 -38 36 -11 18 -30 33 -43 35 -40 6 -27 25 73 107 75 61 117 69 162 31z
m737 -56 c28 -25 35 -40 41 -83 6 -52 36 -130 53 -141 5 -3 20 -31 33 -62 l23
-57 -24 -19 c-22 -18 -39 -19 -229 -16 -205 3 -206 3 -265 32 -73 37 -90 70
-82 160 3 34 5 67 5 74 1 6 10 21 21 32 17 17 33 20 109 20 94 0 106 4 200 67
45 31 74 29 115 -7z"/>
</g>
</svg>
